<svg width="794" height="240" viewBox="0 0 794 240" fill="none" xmlns="http://www.w3.org/2000/svg">
<path d="M700.261 189.849L722.126 201.352L703.5 236.946L675.485 236.946L700.261 189.849Z" fill="#FF7B3E"/>
<path d="M72.4 10.8L1 151H32.4L75.8 65.8L115.8 151H146.8L80.6 10.8H72.4ZM230.405 151H254.005V2.2H230.405V75.2C222.205 67.2 210.805 62.2 198.405 62.2C173.205 62.2 152.805 82.8 152.805 108C152.805 133.4 173.205 153.8 198.405 153.8C210.805 153.8 222.205 148.8 230.405 140.8V151ZM179.205 108C179.205 101.8 181.605 96 185.805 91.4C190.005 87 195.605 84.6 201.605 84.6C207.605 84.6 213.405 87 217.605 91.4C221.805 96 224.205 101.8 224.205 108C224.205 114.2 221.805 120.2 217.605 124.6C213.405 129 207.605 131.4 201.605 131.4C195.605 131.4 190.005 129 185.805 124.6C181.605 120.2 179.205 114.2 179.205 108ZM320.416 151L363.416 64.8H338.616L316.816 109L294.816 64.8H270.016L313.016 151H320.416ZM426.022 124.8C422.022 128.8 416.622 131.2 411.222 131.2C405.422 131.2 400.022 128.8 395.822 124.2C393.622 121.8 392.022 119 390.822 115.8H455.222C455.822 113 456.022 110.4 456.022 107.6C456.022 82.2 435.422 61.8 410.222 61.8C385.022 61.8 364.422 82.2 364.422 107.6C364.422 132.8 385.022 153.4 410.222 153.4C424.022 153.4 436.622 147.2 444.822 137.4L426.022 124.8ZM390.422 100.6C391.622 97 393.422 93.6 395.822 90.8C400.022 86.4 405.422 84 411.222 84C416.822 84 422.422 86.4 426.422 90.8C429.022 93.6 430.822 97 431.822 100.6H390.422ZM509.055 64.8V32.8H483.655V64.8H465.655V88.2H483.655V151H509.055V88.2H529.055V64.8H509.055ZM631.57 13.8C624.17 5.39999 614.37 0.799991 603.97 0.799991C592.77 0.799991 582.57 5.59999 575.57 14.2C568.57 22.8 564.97 34.6 564.97 48.6V64.8H548.57V88.2H564.97V151H588.97V88.2H614.77V64.8H588.97V48.6C588.97 43 589.97 24.8 603.97 24.8C608.57 24.8 611.97 27.8 613.37 29.6L631.57 13.8ZM640.953 151V2.2H666.553V151H640.953ZM687.755 213.6H715.755L793.155 64.8H765.155L738.755 112.6L710.355 64.8H681.555L723.555 145.6L687.755 213.6Z" fill="#FF7B3E"/>
<path d="M15.58 218.24L15.76 218.3C20.14 219.8 22.72 221.9 22.72 224.18C22.72 225.26 21.58 228.44 18.1 228.44C16.24 228.44 11.26 228.44 6.82 223.7L0.7 229.46C3.58 232.52 6.94 234.62 10.72 235.82C13.72 236.72 16.24 236.84 18.1 236.84C21.88 236.84 25.3 235.28 27.76 232.52C29.86 230.18 31.12 227.12 31.12 224.18C31.12 221.18 29.98 218.36 27.82 215.96C25.66 213.62 22.54 211.76 18.52 210.38C18.16 210.26 17.8 210.14 17.32 210.02C13.48 209.06 11.98 207.86 11.92 205.7C11.86 204.32 12.28 203.66 12.64 203.3C13.72 202.16 15.82 201.74 16.36 201.74C20.02 201.74 21.76 202.88 24.46 204.62L25.96 205.58L30.34 198.44L28.96 197.54C25.9 195.56 22.48 193.34 16.36 193.34C14.2 193.34 9.7 194.24 6.58 197.48C4.42 199.76 3.34 202.7 3.52 206.06C3.7 210.08 5.56 213.32 8.92 215.54C11.32 217.16 13.9 217.82 15.28 218.18L15.58 218.24ZM100.881 193.16C88.8808 193.16 79.1008 202.94 79.1008 214.94C79.1008 226.94 88.8808 236.72 100.881 236.72C112.881 236.72 122.661 226.94 122.661 214.94C122.661 202.94 112.881 193.16 100.881 193.16ZM100.881 201.8C108.141 201.8 114.021 207.68 114.021 214.94C114.021 222.2 108.141 228.08 100.881 228.08C93.6208 228.08 87.7408 222.2 87.7408 214.94C87.7408 207.68 93.6208 201.8 100.881 201.8ZM180.257 193.94H171.857V235.94H195.917V227.6H180.257V193.94ZM277.352 220.46V193.94H268.952V220.52H269.012C268.952 222.62 268.172 224.54 266.672 226.04C265.172 227.54 263.252 228.32 261.152 228.32C259.052 228.32 257.072 227.54 255.572 226.04C254.072 224.54 253.232 222.56 253.232 220.46V193.94H244.832V220.52C244.892 229.46 252.152 236.72 261.152 236.72C270.092 236.72 277.412 229.46 277.412 220.46H277.352ZM324.801 193.94V202.34H336.501V236H344.901V202.34H356.541V193.94H324.801ZM405.435 235.94V193.94H413.835V235.94H405.435ZM481.799 193.16C469.799 193.16 460.019 202.94 460.019 214.94C460.019 226.94 469.799 236.72 481.799 236.72C493.799 236.72 503.579 226.94 503.579 214.94C503.579 202.94 493.799 193.16 481.799 193.16ZM481.799 201.8C489.059 201.8 494.939 207.68 494.939 214.94C494.939 222.2 489.059 228.08 481.799 228.08C474.539 228.08 468.659 222.2 468.659 214.94C468.659 207.68 474.539 201.8 481.799 201.8ZM584.815 236L561.175 211.46V236H552.775V193.94H555.415L578.635 217.46V193.94H587.035V236H584.815ZM650.525 218.24L650.705 218.3C655.085 219.8 657.665 221.9 657.665 224.18C657.665 225.26 656.525 228.44 653.045 228.44C651.185 228.44 646.205 228.44 641.765 223.7L635.645 229.46C638.525 232.52 641.885 234.62 645.665 235.82C648.665 236.72 651.185 236.84 653.045 236.84C656.825 236.84 660.245 235.28 662.705 232.52C664.805 230.18 666.065 227.12 666.065 224.18C666.065 221.18 664.925 218.36 662.765 215.96C660.605 213.62 657.485 211.76 653.465 210.38C653.105 210.26 652.745 210.14 652.265 210.02C648.425 209.06 646.925 207.86 646.865 205.7C646.805 204.32 647.225 203.66 647.585 203.3C648.665 202.16 650.765 201.74 651.305 201.74C654.965 201.74 656.705 202.88 659.405 204.62L660.905 205.58L665.285 198.44L663.905 197.54C660.845 195.56 657.425 193.34 651.305 193.34C649.145 193.34 644.645 194.24 641.525 197.48C639.365 199.76 638.285 202.7 638.465 206.06C638.645 210.08 640.505 213.32 643.865 215.54C646.265 217.16 648.845 217.82 650.225 218.18L650.525 218.24Z" fill="white"/>
</svg>
