<svg width="64" height="64" viewBox="0 0 64 64" fill="none" xmlns="http://www.w3.org/2000/svg">
<path d="M10.17 38.0001C10.0108 38.0001 9.85384 37.9624 9.71202 37.8901L2.09002 33.9641C1.85502 33.8432 1.67745 33.6341 1.59613 33.3826C1.5148 33.1312 1.53633 32.8577 1.65602 32.6221L10.61 14.9361C10.6695 14.8187 10.7515 14.7141 10.8514 14.6285C10.9514 14.5428 11.0672 14.4777 11.1924 14.4369C11.3175 14.3961 11.4495 14.3805 11.5807 14.3908C11.7119 14.4011 11.8398 14.4372 11.957 14.4971L19.208 18.1971C19.4408 18.3156 19.618 18.5204 19.7017 18.7678C19.7855 19.0152 19.7691 19.2856 19.656 19.5211L11.072 37.4291C11.014 37.5495 10.9326 37.6572 10.8325 37.7458C10.7324 37.8344 10.6156 37.9021 10.489 37.9451C10.3863 37.9802 10.2786 37.9987 10.17 38.0001V38.0001ZM3.88902 32.6401L9.71302 35.6401L17.431 19.5401L11.941 16.7401L3.88902 32.6401Z" fill="white"/>
<path d="M20.53 24.0841C20.3579 24.0841 20.1888 24.0397 20.039 23.9551L17.133 22.3181C17.0185 22.2537 16.9179 22.1674 16.8368 22.0641C16.7557 21.9608 16.6958 21.8425 16.6604 21.716C16.625 21.5896 16.6149 21.4574 16.6306 21.327C16.6463 21.1966 16.6876 21.0706 16.752 20.9561C16.8164 20.8417 16.9027 20.741 17.006 20.66C17.1093 20.5789 17.2276 20.5189 17.3541 20.4836C17.4805 20.4482 17.6127 20.4381 17.7431 20.4538C17.8735 20.4695 17.9995 20.5107 18.114 20.5751L20.514 21.9261C21.451 21.3581 23.479 20.1351 24.777 19.4021C26.896 18.2021 28.388 18.3671 30.101 19.9901C30.2885 20.1736 30.3964 20.4235 30.4014 20.6858C30.4064 20.9482 30.3081 21.202 30.1277 21.3925C29.9473 21.583 29.6992 21.695 29.437 21.7043C29.1748 21.7135 28.9194 21.6194 28.726 21.4421C27.662 20.4341 27.108 20.3821 25.761 21.1421C24.093 22.0851 21.084 23.9191 21.053 23.9421C20.895 24.0367 20.714 24.0858 20.53 24.0841V24.0841Z" fill="white"/>
<path d="M46.837 41.4833C46.1084 41.502 45.3895 41.3122 44.765 40.9363C43.845 40.3223 39.797 36.3523 38.995 35.5633C38.8182 35.3751 38.7211 35.1258 38.7239 34.8676C38.7267 34.6094 38.8293 34.3623 39.0103 34.178C39.1912 33.9938 39.4363 33.8866 39.6944 33.879C39.9526 33.8715 40.2036 33.964 40.395 34.1373C42.195 35.9143 45.283 38.8793 45.872 39.2723C46.2516 39.4477 46.6715 39.5176 47.0875 39.4747C47.5035 39.4318 47.9002 39.2776 48.236 39.0283C48.3933 38.8919 48.5187 38.7227 48.6033 38.5326C48.688 38.3425 48.7299 38.1361 48.7261 37.928C48.7223 37.7199 48.6729 37.5151 48.5813 37.3282C48.4897 37.1413 48.3582 36.9768 48.196 36.8463C47.174 35.6963 42.928 31.6113 41.996 30.7153C38.7439 29.5233 35.5903 28.0782 32.564 26.3933L31.512 27.0813C31.2758 28.1777 30.6457 29.1494 29.741 29.8123C29.4235 30.0625 29.0548 30.2398 28.6612 30.3317C28.2675 30.4236 27.8585 30.4279 27.463 30.3443C26.9831 30.2845 26.5209 30.1252 26.1061 29.8765C25.6913 29.6279 25.333 29.2954 25.054 28.9003C24.5222 27.7641 24.4625 26.4634 24.888 25.2833C25.741 21.8693 27.125 20.9903 29.04 19.7743L29.461 19.5053C31.571 18.1503 33.382 17.4283 35.37 18.3233C36.606 18.8803 40.993 20.5793 42.239 21.0613L46.415 19.6923C46.6652 19.6162 46.9352 19.6412 47.1672 19.7618C47.3992 19.8824 47.5747 20.089 47.6562 20.3375C47.7377 20.5859 47.7186 20.8564 47.603 21.091C47.4875 21.3255 47.2847 21.5055 47.038 21.5923L42.523 23.0723C42.3044 23.1436 42.068 23.138 41.853 23.0563C41.616 22.9643 36.038 20.8183 34.553 20.1483C33.662 19.7483 32.721 19.7893 30.545 21.1873L30.115 21.4623C28.368 22.5713 27.491 23.1293 26.831 25.7683C26.493 27.1203 26.649 27.6683 26.772 27.8683C26.93 28.1323 27.296 28.2393 27.879 28.3853C28.0042 28.4064 28.1324 28.3994 28.2545 28.3648C28.3766 28.3302 28.4895 28.2689 28.585 28.1853C28.8671 27.9728 29.1026 27.7048 29.2772 27.3978C29.4518 27.0908 29.5616 26.7514 29.6 26.4003C29.6131 26.2496 29.6602 26.1037 29.7378 25.9738C29.8154 25.8439 29.9215 25.7333 30.048 25.6503L31.973 24.3913C32.1247 24.2926 32.3004 24.237 32.4813 24.2303C32.6621 24.2236 32.8414 24.2661 33 24.3533C33.068 24.3903 39.81 28.0773 42.763 28.8533C42.9272 28.8971 43.0778 28.9814 43.201 29.0983C43.417 29.3053 48.501 34.1733 49.695 35.5203C50.0259 35.8406 50.2882 36.2247 50.4661 36.6494C50.6441 37.074 50.7339 37.5304 50.7302 37.9909C50.7264 38.4513 50.6292 38.9062 50.4444 39.3279C50.2596 39.7497 49.991 40.1295 49.655 40.4443C48.8856 41.1424 47.8754 41.5148 46.837 41.4833V41.4833Z" fill="white"/>
<path d="M48.947 37.1819C48.7179 37.1817 48.4958 37.1029 48.3178 36.9585C48.1398 36.8142 48.0169 36.6131 47.9694 36.3889C47.922 36.1647 47.953 35.9311 48.0572 35.727C48.1614 35.523 48.3326 35.3609 48.542 35.2679L52.05 33.7139C52.1706 33.657 52.3014 33.6247 52.4346 33.6191C52.5678 33.6134 52.7008 33.6345 52.8258 33.681C52.9508 33.7275 53.0652 33.7985 53.1623 33.8899C53.2594 33.9813 53.3373 34.0911 53.3913 34.213C53.4453 34.335 53.4744 34.4664 53.4769 34.5998C53.4793 34.7331 53.4551 34.8656 53.4056 34.9894C53.3561 35.1132 53.2823 35.2259 53.1886 35.3208C53.0949 35.4156 52.9832 35.4908 52.86 35.5419L49.351 37.0999C49.2235 37.155 49.0859 37.1829 48.947 37.1819V37.1819Z" fill="white"/>
<path d="M53.5341 38.0001C53.3348 38 53.14 37.9404 52.9749 37.8289C52.8097 37.7173 52.6816 37.559 52.6071 37.3741L45.0591 18.6481C45.0086 18.5232 44.9839 18.3895 44.9864 18.2548C44.989 18.1201 45.0187 17.9874 45.0738 17.8645C45.1289 17.7416 45.2082 17.6311 45.3071 17.5396C45.4059 17.4481 45.5223 17.3775 45.6491 17.3321L53.7151 14.4461C53.9591 14.3588 54.2274 14.3697 54.4636 14.4764C54.6998 14.5831 54.8853 14.7773 54.9811 15.0181L62.3811 33.5921C62.4295 33.7149 62.4531 33.8461 62.4506 33.9781C62.448 34.11 62.4194 34.2402 62.3663 34.361C62.3133 34.4819 62.2368 34.591 62.1413 34.6822C62.0458 34.7733 61.9332 34.8447 61.8101 34.8921L53.8921 37.9301C53.778 37.9752 53.6567 37.9989 53.5341 38.0001V38.0001ZM47.3001 18.8641L54.0911 35.7111L60.1451 33.3911L53.4801 16.6541L47.3001 18.8641ZM42.3321 44.5161C41.5077 44.5408 40.7027 44.2638 40.0681 43.7371C38.7291 42.5471 35.2871 39.1071 35.1411 38.9611C34.9589 38.7725 34.8581 38.5199 34.8604 38.2577C34.8627 37.9955 34.9678 37.7447 35.1532 37.5593C35.3387 37.3739 35.5895 37.2687 35.8517 37.2664C36.1139 37.2642 36.3665 37.365 36.5551 37.5471C36.5901 37.5821 40.1021 41.0921 41.3961 42.2471C41.6643 42.4105 41.968 42.5068 42.2814 42.5277C42.5947 42.5485 42.9085 42.4935 43.1961 42.3671C43.6656 42.2069 44.0822 41.9209 44.4003 41.5402C44.7184 41.1595 44.9259 40.6987 45.0001 40.2081C45.0224 40.0787 45.07 39.9549 45.1401 39.8439C45.2103 39.7329 45.3016 39.6368 45.4089 39.5611C45.5162 39.4853 45.6374 39.4315 45.7655 39.4026C45.8936 39.3737 46.0261 39.3703 46.1556 39.3926C46.285 39.4149 46.4087 39.4625 46.5198 39.5327C46.6308 39.6028 46.7269 39.6942 46.8026 39.8015C46.8784 39.9088 46.9322 40.0299 46.9611 40.158C46.99 40.2862 46.9934 40.4187 46.9711 40.5481C46.8351 41.3882 46.4742 42.1758 45.9266 42.8273C45.379 43.4787 44.6653 43.9697 43.8611 44.2481C43.37 44.4224 42.8531 44.513 42.3321 44.5161V44.5161Z" fill="white"/>
<path d="M37.678 46.9403C36.8554 46.9754 36.0515 46.6884 35.437 46.1403L31.885 42.5883L33.3 41.1733L36.852 44.7253C37.0718 44.8488 37.3151 44.9247 37.5661 44.9481C37.8171 44.9715 38.0702 44.942 38.309 44.8613C38.7677 44.7487 39.1878 44.5149 39.5252 44.1843C39.8626 43.8538 40.105 43.4387 40.227 42.9823C40.264 42.855 40.3259 42.7364 40.4092 42.6332C40.4924 42.5301 40.5954 42.4445 40.712 42.3815C40.8286 42.3185 40.9566 42.2793 41.0885 42.2662C41.2204 42.2531 41.3536 42.2664 41.4803 42.3052C41.6071 42.3441 41.7248 42.4077 41.8267 42.4925C41.9287 42.5772 42.0127 42.6814 42.074 42.7989C42.1353 42.9165 42.1726 43.045 42.1838 43.1771C42.1949 43.3092 42.1797 43.4422 42.139 43.5683C41.8608 44.5374 41.2756 45.3901 40.4714 45.9981C39.6671 46.6062 38.6872 46.9368 37.679 46.9403H37.678Z" fill="white"/>
<path d="M33.866 49.6111C33.0485 49.6285 32.2491 49.3696 31.597 48.8761C30.124 47.6971 28.884 46.7291 28.882 46.7281C28.7764 46.6481 28.6877 46.5478 28.6211 46.4332C28.5546 46.3185 28.5115 46.1918 28.4944 46.0604C28.4772 45.9289 28.4864 45.7954 28.5213 45.6675C28.5563 45.5396 28.6163 45.42 28.6979 45.3155C28.7795 45.211 28.881 45.1238 28.9966 45.059C29.1122 44.9941 29.2396 44.9529 29.3713 44.9377C29.5029 44.9225 29.6363 44.9336 29.7637 44.9704C29.891 45.0072 30.0098 45.069 30.113 45.1521C30.113 45.1521 31.362 46.1271 32.847 47.3151C33.1634 47.5034 33.5233 47.6064 33.8914 47.6139C34.2595 47.6215 34.6232 47.5333 34.947 47.3581C35.2366 47.2336 35.4816 47.0243 35.6497 46.7578C35.8179 46.4913 35.9013 46.18 35.889 45.8651C35.881 45.6 35.9785 45.3426 36.1602 45.1494C36.3419 44.9563 36.593 44.8432 36.858 44.8351C37.1223 44.8304 37.378 44.9293 37.5704 45.1105C37.7629 45.2917 37.8769 45.541 37.888 45.8051C37.9116 46.5017 37.7301 47.1898 37.366 47.7841C37.0019 48.3784 36.4713 48.8527 35.84 49.1481C35.2263 49.4519 34.5509 49.6103 33.866 49.6111V49.6111Z" fill="white"/>
<path d="M26.3721 49.1483C26.047 49.1471 25.7254 49.0826 25.4251 48.9583C24.6096 48.5582 23.9374 47.9164 23.5001 47.1203C22.7904 47.258 22.0549 47.1475 21.4171 46.8073C20.882 46.4566 20.422 46.003 20.0639 45.4728C19.7058 44.9427 19.4567 44.3466 19.3311 43.7193C19.2784 43.4639 19.3275 43.198 19.4681 42.9783C20.2811 41.7103 21.5071 39.7393 21.6901 39.3283C21.8547 39.0004 22.0883 38.712 22.3748 38.4828C22.6613 38.2536 22.994 38.089 23.3501 38.0003C23.8344 37.8734 24.3409 37.8564 24.8327 37.9505C25.3244 38.0446 25.7889 38.2475 26.1921 38.5443C26.6389 38.8401 26.9977 39.2509 27.2307 39.7335C27.4637 40.216 27.5623 40.7525 27.5161 41.2863C27.9917 41.3068 28.4574 41.4291 28.8818 41.6449C29.3062 41.8607 29.6793 42.165 29.9761 42.5373C30.2643 42.9877 30.4483 43.4969 30.5145 44.0275C30.5808 44.5581 30.5277 45.0969 30.3591 45.6043C29.8346 47.0682 28.7577 48.2686 27.3591 48.9483C27.0468 49.0804 26.7111 49.1484 26.3721 49.1483ZM25.1841 46.0273C25.4981 46.5583 26.0591 47.3203 26.5841 47.1013C27.4557 46.6473 28.1267 45.8847 28.4661 44.9623C28.5328 44.7582 28.5584 44.5429 28.5412 44.3288C28.524 44.1147 28.4645 43.9062 28.3661 43.7153C28.2139 43.5663 28.0333 43.4495 27.8351 43.3719C27.6368 43.2942 27.4249 43.2573 27.2121 43.2633L25.1841 46.0273ZM21.3931 43.6773C21.5522 44.233 21.897 44.7172 22.3701 45.0493C22.5177 45.1251 22.6794 45.1698 22.845 45.1806C23.0107 45.1915 23.1768 45.1682 23.3331 45.1123L25.4681 41.4523C25.5529 41.2261 25.5584 40.9778 25.4835 40.7481C25.4086 40.5185 25.2579 40.321 25.0561 40.1883C24.9025 40.0673 24.7253 39.9797 24.5358 39.9313C24.3464 39.8829 24.1489 39.8747 23.9561 39.9073C23.7858 39.9354 23.6305 40.0212 23.5161 40.1503C23.2521 40.7353 21.9821 42.7513 21.3931 43.6773Z" fill="white"/>
<path d="M18.729 45.2393C18.492 45.24 18.2562 45.2063 18.029 45.1393C16.316 44.6243 15.645 42.4063 15.574 42.1553C15.5381 42.028 15.5278 41.8948 15.5438 41.7635C15.5598 41.6321 15.6016 41.5053 15.667 41.3903C16.5169 39.9138 17.457 38.4911 18.482 37.1303C18.9965 36.4609 19.742 36.0073 20.573 35.8581C21.4039 35.7089 22.2607 35.8748 22.976 36.3233C23.92 36.9783 24.612 38.4033 23.454 40.2653C23.3847 40.3769 23.2941 40.4738 23.1874 40.5504C23.0807 40.627 22.9599 40.6819 22.832 40.7118C22.7041 40.7418 22.5715 40.7462 22.4419 40.7249C22.3123 40.7037 22.1881 40.6571 22.0765 40.5878C21.9648 40.5185 21.8679 40.4279 21.7913 40.3212C21.7147 40.2145 21.6599 40.0937 21.6299 39.9658C21.6 39.8379 21.5955 39.7054 21.6168 39.5757C21.6381 39.4461 21.6847 39.3219 21.754 39.2103C22.011 38.7953 22.234 38.2443 21.835 37.9673C21.5433 37.808 21.2042 37.7589 20.8794 37.8291C20.5546 37.8992 20.2659 38.0839 20.066 38.3493C19.1875 39.5166 18.3746 40.7318 17.631 41.9893C17.85 42.5123 18.223 43.1113 18.604 43.2243C18.941 43.3243 19.404 42.9783 19.655 42.7643C19.8557 42.5908 20.1172 42.5042 20.3818 42.5236C20.6464 42.5429 20.8925 42.6665 21.066 42.8673C21.2394 43.0681 21.326 43.3295 21.3067 43.5941C21.2874 43.8587 21.1637 44.1048 20.963 44.2783C20.3617 44.8623 19.5664 45.2044 18.729 45.2393V45.2393Z" fill="white"/>
<path d="M16.534 42.88C16.4241 42.8799 16.315 42.8616 16.211 42.826C16.042 42.769 12.056 41.376 12.056 38.254C12.0559 38.1492 12.0721 38.0449 12.104 37.945C12.4659 36.9492 12.9614 36.0073 13.577 35.145C14.0352 34.5976 14.6679 34.2247 15.3688 34.0892C16.0697 33.9537 16.7958 34.0638 17.425 34.401C18.0173 34.6635 18.4897 35.1385 18.7489 35.7322C19.008 36.3259 19.0352 36.9952 18.825 37.608C18.171 39.714 17.5 42.121 17.493 42.146C17.4343 42.3563 17.3084 42.5415 17.1345 42.6735C16.9606 42.8055 16.7483 42.877 16.53 42.877L16.534 42.88ZM14.064 38.409C14.164 39.345 15.122 40.057 15.89 40.484C16.151 39.572 16.538 38.245 16.918 37.018C16.9529 36.9401 16.9708 36.8556 16.9704 36.7702C16.97 36.6848 16.9514 36.6005 16.9158 36.5228C16.8802 36.4452 16.8284 36.3761 16.764 36.3201C16.6995 36.2641 16.6239 36.2224 16.542 36.198C16.3354 36.0815 16.0989 36.0288 15.8624 36.0465C15.6258 36.0643 15.3999 36.1519 15.213 36.298C14.7494 36.9547 14.3638 37.6631 14.064 38.409V38.409Z" fill="white"/>
<path d="M13.877 37.5294C13.6757 37.5291 13.4791 37.4681 13.313 37.3544L10.69 35.5544C10.471 35.4045 10.3206 35.1738 10.2717 34.9131C10.2229 34.6523 10.2796 34.3828 10.4295 34.1639C10.5793 33.9449 10.81 33.7945 11.0708 33.7456C11.3315 33.6968 11.601 33.7535 11.82 33.9034L14.443 35.7034C14.6197 35.8239 14.753 35.998 14.8235 36.1999C14.894 36.4019 14.8978 36.6211 14.8345 36.8254C14.7712 37.0297 14.644 37.2084 14.4716 37.3351C14.2993 37.4618 14.0909 37.5299 13.877 37.5294V37.5294Z" fill="white"/>
</svg>
