<svg width="60" height="61" viewBox="0 0 60 61" fill="none" xmlns="http://www.w3.org/2000/svg">
<path d="M30 44.0001C31.78 44.0001 33.5201 43.4723 35.0001 42.4833C36.4802 41.4944 37.6337 40.0888 38.3149 38.4443C38.9961 36.7997 39.1743 34.9901 38.8271 33.2443C38.4798 31.4985 37.6226 29.8948 36.364 28.6362C35.1053 27.3775 33.5016 26.5203 31.7558 26.173C30.01 25.8258 28.2004 26.004 26.5558 26.6852C24.9113 27.3664 23.5057 28.5199 22.5168 30C21.5278 31.48 21 33.2201 21 35.0001C21 37.3871 21.9482 39.6762 23.636 41.3641C25.3239 43.0519 27.6131 44.0001 30 44.0001ZM30 28.0001C31.3845 28.0001 32.7378 28.4107 33.889 29.1798C35.0401 29.949 35.9373 31.0422 36.4672 32.3213C36.997 33.6004 37.1356 35.0079 36.8655 36.3657C36.5954 37.7236 35.9287 38.9709 34.9497 39.9499C33.9708 40.9288 32.7235 41.5955 31.3656 41.8656C30.0078 42.1357 28.6003 41.9971 27.3212 41.4673C26.0421 40.9375 24.9489 40.0402 24.1797 38.8891C23.4105 37.738 23 36.3846 23 35.0001C23 33.1436 23.7375 31.3631 25.0503 30.0504C26.363 28.7376 28.1435 28.0001 30 28.0001V28.0001ZM1 60.0001H13C13.2652 60.0001 13.5196 59.8948 13.7071 59.7072C13.8946 59.5197 14 59.2653 14 59.0001V47.0001C14 46.7349 13.8946 46.4805 13.7071 46.293C13.5196 46.1055 13.2652 46.0001 13 46.0001H1C0.734784 46.0001 0.48043 46.1055 0.292893 46.293C0.105357 46.4805 0 46.7349 0 47.0001V59.0001C0 59.2653 0.105357 59.5197 0.292893 59.7072C0.48043 59.8948 0.734784 60.0001 1 60.0001ZM2 48.0001H12V58.0001H2V48.0001ZM60 53.0001C60 51.4179 59.5308 49.8711 58.6518 48.5555C57.7727 47.24 56.5233 46.2146 55.0615 45.6091C53.5997 45.0036 51.9911 44.8451 50.4393 45.1538C48.8874 45.4625 47.462 46.2244 46.3431 47.3433C45.2243 48.4621 44.4624 49.8875 44.1537 51.4394C43.845 52.9912 44.0035 54.5998 44.609 56.0616C45.2145 57.5234 46.2398 58.7728 47.5554 59.6519C48.871 60.5309 50.4177 61.0001 52 61.0001C54.1217 61.0001 56.1566 60.1573 57.6569 58.657C59.1571 57.1567 60 55.1218 60 53.0001ZM46 53.0001C46 51.8134 46.3519 50.6534 47.0112 49.6667C47.6705 48.68 48.6075 47.911 49.7039 47.4568C50.8003 47.0027 52.0067 46.8839 53.1705 47.1154C54.3344 47.3469 55.4035 47.9184 56.2426 48.7575C57.0818 49.5966 57.6532 50.6657 57.8847 51.8296C58.1162 52.9935 57.9974 54.1999 57.5433 55.2962C57.0892 56.3926 56.3201 57.3296 55.3334 57.9889C54.3467 58.6482 53.1867 59.0001 52 59.0001C50.4087 59.0001 48.8826 58.368 47.7574 57.2428C46.6321 56.1175 46 54.5914 46 53.0001ZM21.13 16.5001C21.2181 16.6527 21.345 16.7793 21.4977 16.8671C21.6505 16.9549 21.8238 17.0008 22 17.0001H38C38.1762 17.0008 38.3495 16.9549 38.5023 16.8671C38.655 16.7793 38.7819 16.6527 38.87 16.5001C38.9578 16.3481 39.004 16.1756 39.004 16.0001C39.004 15.8246 38.9578 15.6521 38.87 15.5001L30.87 1.50011C30.7828 1.34621 30.6563 1.21821 30.5035 1.12915C30.3506 1.04009 30.1769 0.993164 30 0.993164C29.8231 0.993164 29.6494 1.04009 29.4965 1.12915C29.3437 1.21821 29.2172 1.34621 29.13 1.50011L21.13 15.5001C21.0422 15.6521 20.996 15.8246 20.996 16.0001C20.996 16.1756 21.0422 16.3481 21.13 16.5001V16.5001ZM30 4.00011L36.28 15.0001H23.72L30 4.00011ZM17.48 55.7901L16.48 57.5501C17.15 57.9201 17.85 58.2601 18.55 58.5501L19.37 56.7201C18.75 56.4601 18.11 56.1401 17.48 55.7901ZM41.41 58.5801L40.59 56.7501C34.5037 59.4559 27.6129 59.7314 21.33 57.5201L20.67 59.4101C23.6677 60.4638 26.8225 61.0014 30 61.0001C33.9318 61.0106 37.821 60.1857 41.41 58.5801V58.5801ZM55.12 39.7401C54.94 40.3901 54.74 41.0401 54.52 41.6701L56.41 42.3301C56.65 41.6501 56.86 40.9601 57.05 40.2601L55.12 39.7401ZM56 33.0001C55.9992 34.6168 55.852 36.23 55.56 37.8201L57.56 38.1801C58.852 31.2454 57.479 24.0786 53.7154 18.1125C49.9518 12.1464 44.075 7.82063 37.26 6.00011L36.74 7.93011C42.2592 9.41149 47.1366 12.6699 50.618 17.2016C54.0995 21.7332 55.9909 27.2856 56 33.0001V33.0001ZM23.26 7.88011L22.74 6.00011C22.05 6.19011 21.35 6.40011 20.67 6.64011L21.33 8.53011C22 8.26011 22.61 8.06011 23.26 7.88011ZM5.93 42.8401C3.37262 36.5871 3.34953 29.5842 5.86564 23.3145C8.38175 17.0447 13.2395 12.0005 19.41 9.25011L18.59 7.42011C11.9513 10.3915 6.72633 15.8253 4.01737 22.5754C1.3084 29.3254 1.32727 36.8637 4.07 43.6001L5.93 42.8401Z" fill="white"/>
</svg>
