<?xml version="1.0" encoding="UTF-8"?>
<svg width="48px" height="48px" viewBox="0 0 48 48" version="1.1" xmlns="http://www.w3.org/2000/svg" xmlns:xlink="http://www.w3.org/1999/xlink">
    <!-- Generator: Sketch 52.4 (67378) - http://www.bohemiancoding.com/sketch -->
    <title>quote-icon-white</title>
    <desc>Created with Sketch.</desc>
    <g id="quote-icon" stroke="none" stroke-width="1" fill="none" fill-rule="evenodd">
        <path d="M25.3350126,28.701278 C25.3350126,26.1400298 25.729635,23.6576265 26.5188917,21.2539936 C27.3081484,18.8503607 28.5610745,16.6240784 30.2777078,14.5750799 C31.9943411,12.5260813 34.2239577,10.6839805 36.9666247,9.04872204 C39.7092916,7.4134636 43.0537166,6.06390308 47,5 L47,11.2651757 C45.2636353,11.8956368 43.7246079,12.5260884 42.3828715,13.1565495 C41.0411352,13.7870106 39.9263269,14.4667163 39.0384131,15.1956869 C38.1504993,15.9246575 37.4796412,16.7324237 37.0258186,17.6190096 C36.5719961,18.5055955 36.3450882,19.5399302 36.3450882,20.7220447 C36.3450882,21.5101211 36.5621305,22.1405727 36.9962217,22.6134185 C37.4303128,23.0862643 37.9827842,23.5394015 38.6536524,23.9728435 C39.3245206,24.4062854 40.0348409,24.8495717 40.7846348,25.3027157 C41.5344286,25.7558596 42.244749,26.3272063 42.9156171,27.0167732 C43.5864853,27.70634 44.1389567,28.5830618 44.5730479,29.6469649 C45.007139,30.7108679 45.2241814,32.0505777 45.2241814,33.6661342 C45.2241814,36.3849976 44.3856087,38.453667 42.7084383,39.8722045 C41.0312679,41.2907419 38.9496346,42 36.4634761,42 C33.0302095,42 30.3171804,40.8179032 28.3243073,38.4536741 C26.3314342,36.089445 25.3350126,32.8386788 25.3350126,28.701278 Z M0,28.701278 C0,26.1400298 0.394622418,23.6576265 1.18387909,21.2539936 C1.97313577,18.8503607 3.22606195,16.6240784 4.94269521,14.5750799 C6.65932848,12.5260813 8.88894514,10.6839805 11.6316121,9.04872204 C14.374279,7.4134636 17.718704,6.06390308 21.6649874,5 L21.6649874,11.2651757 C19.8891599,11.8956368 18.3402669,12.5260884 17.018262,13.1565495 C15.696257,13.7870106 14.5913143,14.4667163 13.7034005,15.1956869 C12.8154867,15.9246575 12.1446286,16.7324237 11.690806,17.6190096 C11.2369835,18.5055955 11.0100756,19.5399302 11.0100756,20.7220447 C11.0100756,21.5101211 11.2271179,22.1405727 11.6612091,22.6134185 C12.0953002,23.0862643 12.6477716,23.5394015 13.3186398,23.9728435 C13.989508,24.4062854 14.6998283,24.8495717 15.4496222,25.3027157 C16.199416,25.7558596 16.9097364,26.3272063 17.5806045,27.0167732 C18.2514727,27.70634 18.8039441,28.5830618 19.2380353,29.6469649 C19.6721264,30.7108679 19.8891688,32.0505777 19.8891688,33.6661342 C19.8891688,36.3849976 19.0505961,38.453667 17.3734257,39.8722045 C15.6962553,41.2907419 13.614622,42 11.1284635,42 C7.69519694,42 4.98216781,40.8179032 2.98929471,38.4536741 C0.996421606,36.089445 0,32.8386788 0,28.701278 Z" id="icon" fill="#FFFFFF"></path>
    </g>
</svg>